<svg version="1.1" id="Layer_1" xmlns:x="ns_extend;" xmlns:i="ns_ai;" xmlns:graph="ns_graphs;" xmlns="http://www.w3.org/2000/svg" xmlns:xlink="http://www.w3.org/1999/xlink" x="0px" y="0px" viewBox="0 0 677 200" style="enable-background:new 0 0 677 200;" xml:space="preserve">
 <style type="text/css">
  .st0{fill-rule:evenodd;clip-rule:evenodd;fill:#FFFFFF;}
	.st1{fill:#FFFFFF;}
 </style>
 <metadata>
  <sfw xmlns="ns_sfw;">
   <slices>
   </slices>
   <sliceSourceBounds bottomLeftOrigin="true" height="200" width="677" x="0" y="0">
   </sliceSourceBounds>
  </sfw>
 </metadata>
 <g>
  <path class="st0" d="M286.3,65.3c-37.2,0-67.4,30.2-67.4,67.3c0,37.1,30.2,67.3,67.4,67.3c37.1,0,67.4-30.2,67.4-67.3
		C353.7,95.6,323.5,65.3,286.3,65.3z M286.3,168.1c-19.5,0-35.4-15.9-35.4-35.4s15.9-35.4,35.4-35.4s35.4,15.9,35.4,35.4
		S305.9,168.1,286.3,168.1z">
  </path>
  <path class="st1" d="M510.4,42c11.6,0,21-9.4,21-21c0-11.6-9.4-21-21-21c-11.6,0-21,9.4-21,21C489.4,32.6,498.8,42,510.4,42z">
  </path>
  <path class="st0" d="M148.8,65.4c-1.8-0.1-3.4-0.2-5.2-0.2c-16.2,0-31.6,6.7-42.7,18.4C89.9,71.9,74.6,65.2,58.5,65.2
		C26.3,65.2,0,91.4,0,123.6v73.7h31.5v-72.8c0-13.4,11-25.7,23.9-27c0.9-0.1,1.8-0.1,2.7-0.1c14.6,0,26.5,11.9,26.5,26.5v73.5h32.2
		v-72.9c0-13.3,10.9-25.6,23.9-27c0.9-0.1,1.8-0.1,2.7-0.1c14.6,0,26.5,11.8,26.6,26.3v73.7h32.2v-72.8c0-14.8-5.5-29-15.3-40
		C177.1,73.4,163.5,66.6,148.8,65.4z">
  </path>
  <path class="st1" d="M403.3,3.2h-32.2v194.3h32.2V3.2z">
  </path>
  <path class="st1" d="M464.9,3.2h-32.2v194.3h32.2L464.9,3.2z">
  </path>
  <path class="st1" d="M526.5,68.5h-32.2v128.8h32.2V68.5z">
  </path>
  <path class="st0" d="M677,129.6c0-17.1-6.7-33.2-18.7-45.4c-12.1-12.3-28.1-19-45.1-19c-0.3,0-0.6,0-0.8,0
		c-17.6,0.2-34.3,7.2-46.8,19.7c-12.5,12.5-19.5,29.1-19.7,46.8c-0.2,18.1,6.7,35.1,19.5,48.1c12.8,13,29.8,20.1,47.8,20.1h0.1
		c23.7,0,45.9-12.7,58-33l1.5-2.6l-26.6-13.1l-1.3,2.2c-6.7,11-18.2,17.5-31,17.5c-16.4,0-30.5-10.9-34.9-26.5H677L677,129.6z
		 M612,94.4c14.7,0,27.9,9.7,32.5,23.4h-64.9C584.1,104.1,597.3,94.4,612,94.4z">
  </path>
 </g>
</svg>