<svg version="1.1" id="Layer_1" xmlns="http://www.w3.org/2000/svg" xmlns:xlink="http://www.w3.org/1999/xlink" x="0px" y="0px"
	 width="100%" viewBox="0 0 1024 1024" enable-background="new 0 0 1024 1024" xml:space="preserve">
<path fill="#000000" opacity="1.000000" stroke="none" 
	d="
M917.321655,302.325989 
	C891.317749,326.253632 866.440308,350.856873 840.649719,374.500702 
	C822.113220,391.494232 804.329102,409.305511 786.049072,426.582336 
	C754.941772,455.982361 723.652771,485.190033 692.545776,514.590210 
	C668.210876,537.589905 644.124817,560.853088 619.767151,583.828430 
	C589.111633,612.744202 558.290161,641.483948 527.547058,670.306885 
	C524.994751,672.699768 522.591797,675.260925 519.947144,677.544312 
	C515.742737,681.174316 512.212036,681.304504 507.755829,678.011780 
	C505.349609,676.233704 503.056641,674.272888 500.881866,672.215576 
	C473.044495,645.881897 445.298859,619.451050 417.406464,593.175781 
	C388.311859,565.768066 359.016571,538.573181 329.938904,511.147552 
	C313.225830,495.384064 296.878998,479.232483 280.174927,463.459290 
	C251.232330,436.129730 222.044449,409.059662 193.135376,381.694885 
	C157.449280,347.915161 121.940186,313.948425 86.360542,280.056213 
	C74.957756,269.194244 74.636925,266.486206 85.860626,255.643250 
	C106.944138,235.274994 128.381851,215.273422 149.666855,195.113663 
	C166.477386,179.191803 183.202545,163.178818 200.107071,147.357452 
	C217.738754,130.855545 235.558456,114.554657 253.249924,98.116341 
	C256.470947,95.123451 260.310638,94.727791 264.393005,94.730507 
	C302.558044,94.755936 340.723114,94.754944 378.888153,94.755730 
	C507.216522,94.758369 635.544922,94.773766 763.873230,94.694710 
	C768.215698,94.692032 771.506714,96.116859 774.586792,99.018356 
	C806.232117,128.828598 837.841858,158.677689 869.649841,188.313858 
	C894.638062,211.595993 919.517273,234.988098 943.969482,258.832886 
	C944.804626,259.647278 945.668518,260.433868 946.475769,261.274841 
	C950.953308,265.939423 951.124878,268.623505 946.613953,273.189545 
	C937.018616,282.902039 927.260986,292.454163 917.321655,302.325989 
M580.107666,509.698792 
	C583.080505,502.672607 586.056641,495.647766 589.025574,488.619965 
	C599.635254,463.506012 610.231384,438.386322 620.853577,413.277679 
	C637.559937,373.787537 654.297729,334.310730 670.984192,294.812195 
	C673.599426,288.621826 676.013916,282.346649 678.538696,276.067200 
	C675.251709,274.686768 672.549438,275.101074 669.929993,275.100128 
	C625.455688,275.084167 580.981384,275.121185 536.507080,275.150452 
	C534.342224,275.151855 532.159607,275.020203 530.016174,275.244934 
	C525.702820,275.697205 522.290527,279.175232 522.802551,282.574493 
	C524.312988,292.601135 525.850586,302.624512 527.494629,312.629944 
	C531.294312,335.755341 535.247681,358.855682 538.976929,381.992310 
	C541.961548,400.509430 544.298828,419.140137 547.686340,437.580261 
	C550.510864,452.955750 553.172668,468.351654 555.710266,483.773621 
	C558.595154,501.306335 561.499878,518.835876 564.473206,536.353760 
	C564.691162,537.637573 564.515869,539.409790 566.939941,540.049683 
	C571.233398,530.164307 575.525757,520.281555 580.107666,509.698792 
M471.615570,479.262421 
	C471.939362,477.628784 472.380005,476.008606 472.569305,474.359528 
	C475.262390,450.900146 480.752075,427.896240 483.818390,404.485504 
	C485.955048,388.172455 489.113007,371.993591 491.792603,355.751099 
	C493.359772,346.251556 494.829407,336.735657 496.439240,327.243439 
	C498.828461,313.155701 501.581726,299.122772 503.629150,284.986755 
	C504.725769,277.415070 502.245636,275.227539 494.346924,275.220367 
	C447.520996,275.177917 400.695038,275.162720 353.869110,275.178772 
	C352.134155,275.179382 350.175171,274.582947 348.319092,276.693787 
	C385.501373,364.685333 422.765167,452.869720 460.028931,541.054077 
	C465.187317,520.693054 468.209412,500.385986 471.615570,479.262421 
M428.181976,140.887070 
	C415.348297,145.510620 402.514648,150.134171 388.797180,155.076126 
	C398.276855,163.728287 406.685699,171.508392 415.207977,179.162231 
	C443.952667,204.977707 472.990845,230.461990 501.597992,256.437225 
	C513.769836,267.489258 511.885345,268.134155 525.185486,256.642365 
	C542.193726,241.946625 558.673889,226.640335 575.407776,211.626266 
	C595.485291,193.612152 615.592834,175.631485 635.673157,157.620453 
	C636.375977,156.990021 637.355408,156.382034 636.582581,154.605560 
	C622.809326,149.493652 608.635620,144.331314 594.534302,138.978149 
	C568.577698,129.124435 542.104736,120.665550 516.435303,110.044212 
	C514.061279,109.061905 511.970398,109.314491 509.705017,110.235619 
	C503.078949,112.929825 496.454193,115.637009 489.752228,118.133125 
	C469.494049,125.678169 449.199615,133.125870 428.181976,140.887070 
M386.491913,478.019867 
	C404.316376,497.976166 422.140869,517.932495 439.965332,537.888794 
	C436.537964,526.421021 432.213196,515.665405 427.713226,504.983612 
	C413.906464,472.209686 399.981628,439.485474 386.197449,406.702057 
	C368.545135,364.719086 350.949829,322.712006 333.441467,280.668884 
	C331.755798,276.621124 329.561401,275.028687 324.926727,275.054779 
	C287.602722,275.265045 250.276886,275.143829 212.951660,275.177551 
	C211.265717,275.179077 209.282516,274.436615 207.938705,276.231140 
	C208.175446,277.947021 209.438034,278.860321 210.422592,279.963867 
	C246.345444,320.228638 282.301697,360.463715 318.175720,400.771912 
	C340.871429,426.272949 363.444275,451.883362 386.491913,478.019867 
M672.229065,331.633759 
	C643.321228,400.277466 614.413391,468.921143 585.505554,537.564819 
	C663.392883,450.054321 741.697815,363.096710 819.977356,275.918457 
	C817.967102,274.705963 816.270874,275.116180 814.658569,275.116577 
	C779.510376,275.125000 744.361633,275.069611 709.214111,275.242126 
	C692.534790,275.323975 696.626099,272.775146 690.480469,287.628082 
	C684.507690,302.063232 678.528870,316.495819 672.229065,331.633759 
M504.365723,375.734100 
	C502.790161,388.090942 500.334381,400.306061 498.612122,412.651154 
	C495.766144,433.050995 491.698914,453.277039 488.488922,473.630341 
	C484.295227,500.221069 480.004944,526.788879 474.773651,553.200439 
	C472.716431,563.586731 470.757324,573.571106 476.702393,584.024597 
	C487.053101,602.224609 496.020294,621.208435 505.709473,639.789673 
	C508.207611,644.580383 509.845581,649.867065 513.270996,654.126099 
	C515.022278,653.511780 515.299805,652.067139 515.862305,650.931274 
	C527.079163,628.278381 538.088013,605.524231 550.023865,583.228882 
	C552.154846,579.248291 554.944885,575.035278 554.402954,570.192322 
	C553.590088,562.928101 552.319031,555.711121 551.112305,548.495850 
	C547.993591,529.848083 544.808777,511.211365 541.639832,492.571991 
	C539.774353,481.599335 537.883545,470.631012 536.013977,459.659088 
	C534.311584,449.668365 532.517883,439.691650 530.955933,429.678955 
	C529.292725,419.017242 528.010376,408.295135 526.283325,397.644562 
	C523.176880,378.487610 519.862122,359.364471 516.635742,340.226990 
	C515.705566,334.709686 514.780396,329.191589 513.852905,323.673859 
	C511.000671,341.002167 506.707245,357.767883 504.365723,375.734100 
M826.797668,243.488953 
	C824.481079,231.943237 822.199585,220.390335 819.838623,208.853699 
	C817.175049,195.838287 814.349854,182.855438 811.758545,169.825897 
	C808.460510,153.243210 808.485107,153.342270 792.603088,146.856827 
	C765.207825,135.669891 737.828613,124.439789 710.574951,112.914841 
	C706.908142,111.364243 704.804199,111.881889 702.310669,114.460258 
	C693.981079,123.073112 685.453796,131.496078 677.193115,140.173523 
	C673.816528,143.720490 669.750793,146.811111 667.694824,152.059052 
	C720.526611,185.436188 773.617981,218.101212 827.115723,250.456268 
	C828.189880,247.760132 826.829102,246.101151 826.797668,243.488953 
M209.878922,197.219238 
	C206.496002,214.556473 203.113083,231.893692 199.459686,250.617096 
	C254.437668,217.445755 307.563843,184.380432 361.039093,150.957520 
	C348.501007,138.822433 336.366364,127.673843 325.322296,115.469887 
	C321.965546,111.760559 318.948303,111.667183 314.930054,113.715538 
	C302.176544,120.216843 288.704010,125.058228 275.501495,130.516556 
	C258.596436,137.505676 241.597763,144.268051 224.666412,151.194092 
	C222.089996,152.248032 219.184250,153.180405 218.483170,156.441147 
	C215.623199,169.742615 212.818756,183.056015 209.878922,197.219238 
M666.724060,470.220428 
	C639.606628,500.008209 613.861023,531.013794 586.439453,560.537292 
	C580.117615,567.343689 572.551392,573.290833 568.085693,581.524902 
	C560.558472,595.404053 553.750122,609.676025 546.772522,623.848328 
	C544.992554,627.463623 542.716492,630.945679 542.066589,635.138184 
	C543.608154,635.271179 544.157837,634.280151 544.875977,633.655945 
	C561.092285,619.561707 576.630615,604.731506 592.186890,589.923889 
	C625.108704,558.586365 657.984497,527.201111 691.002930,495.964508 
	C706.072327,481.708344 721.936401,468.451874 731.700317,448.734497 
	C748.514954,414.779053 767.992737,382.144592 786.261414,348.905548 
	C790.857666,340.542847 795.107056,331.989532 799.515869,323.523804 
	C798.263733,323.573730 797.617737,324.035980 797.095337,324.610565 
	C786.349304,336.430481 775.541504,348.195312 764.896790,360.105865 
	C732.285645,396.595062 699.738220,433.141144 666.724060,470.220428 
M342.990601,451.494995 
	C305.208344,408.316956 266.556244,365.926422 227.569061,323.779236 
	C230.038010,329.451477 232.820251,334.876648 235.747086,340.222626 
	C253.802551,373.201996 271.801239,406.213013 290.007629,439.109009 
	C298.431061,454.328796 306.426483,469.645599 320.014069,481.554810 
	C340.036957,499.104431 359.229950,517.622742 378.400757,536.117859 
	C409.554840,566.173828 441.098267,595.810730 472.875366,625.202637 
	C477.175232,629.179749 481.556732,633.068604 486.531250,637.569031 
	C486.237335,636.152466 486.239899,635.649170 486.035217,635.252991 
	C478.712128,621.080505 471.684479,606.741577 463.890381,592.832275 
	C460.269348,586.370178 457.806885,579.281860 452.369598,573.686462 
	C429.390808,550.039673 407.444489,525.456543 386.218018,500.205688 
	C372.405304,483.774200 357.753296,468.048218 342.990601,451.494995 
M761.699829,428.763702 
	C782.310242,409.360382 802.960876,389.999664 823.521667,370.543884 
	C855.336914,340.438324 887.095520,310.272797 918.853638,280.106934 
	C920.102051,278.921082 921.841553,277.952423 921.793579,275.763123 
	C919.687439,274.674103 917.492126,275.069427 915.383423,275.063324 
	C894.721252,275.003418 874.047668,275.384003 853.402283,274.782410 
	C845.405396,274.549377 840.316223,276.601044 838.012207,284.475037 
	C837.415344,286.515076 836.185547,288.385284 835.145386,290.277924 
	C815.023499,326.891693 794.888062,363.498077 774.751526,400.103790 
	C769.861389,408.993530 764.941284,417.866821 760.072021,426.767944 
	C758.998230,428.730835 759.070618,428.770447 761.699829,428.763702 
M142.515915,312.977600 
	C183.610794,352.397705 224.925644,391.583527 266.921692,430.670349 
	C267.602692,428.026245 266.158203,426.823059 265.421661,425.450104 
	C259.606720,414.610504 253.727524,403.805054 247.822403,393.014099 
	C227.226868,355.378235 206.586639,317.766754 186.053284,280.097015 
	C184.309326,276.897644 182.471634,274.989716 178.425858,275.025360 
	C156.116165,275.222076 133.804092,275.133179 111.493088,275.214966 
	C109.429810,275.222534 107.193306,274.624786 104.801346,276.381836 
	C116.527870,289.294006 129.500198,300.653198 142.515915,312.977600 
M405.000275,190.524185 
	C395.707916,183.135941 387.759552,174.139755 377.173248,166.516449 
	C366.148743,197.599457 357.392426,228.443527 345.997772,259.300476 
	C391.657257,260.552521 436.295288,258.822021 481.543396,259.060272 
	C455.955872,236.135269 430.752258,213.554214 405.000275,190.524185 
M653.203186,176.073593 
	C652.613220,172.820587 651.666870,169.701187 649.652161,166.214462 
	C614.441711,196.636810 581.179321,228.662933 545.084656,259.050690 
	C552.539001,260.478973 558.617432,259.032410 564.694702,259.052338 
	C590.858276,259.138153 617.022156,259.108704 643.185974,259.113739 
	C653.851440,259.115784 664.517151,259.061981 675.182373,259.110138 
	C679.027527,259.127502 680.261475,258.034027 678.647705,254.011841 
	C676.613708,248.942490 675.337891,243.573013 673.641479,238.363480 
	C666.957031,217.836380 660.235840,197.321213 653.203186,176.073593 
M349.231018,175.743530 
	C305.223450,203.041656 261.215881,230.339783 216.619827,258.002960 
	C217.993317,258.730316 218.140671,258.876770 218.287857,258.876648 
	C254.259079,258.840210 290.227295,260.585236 326.202850,259.049500 
	C329.228088,258.920380 330.727264,257.378418 331.581116,254.769974 
	C338.612091,233.291077 345.673553,211.822083 352.657410,190.327881 
	C354.628113,184.262787 357.280121,178.358932 357.836182,171.640976 
	C354.617096,172.333420 352.299988,173.995773 349.231018,175.743530 
M808.259094,259.147156 
	C809.135254,258.984375 810.238770,259.924744 811.165161,258.129730 
	C763.898438,229.103836 716.627197,200.075134 669.317627,171.022949 
	C668.377441,172.497559 669.167542,173.765900 669.544678,174.941193 
	C674.465271,190.276337 679.529480,205.565674 684.394348,220.918274 
	C687.851501,231.828339 691.784668,242.584839 694.725952,253.669403 
	C695.371948,256.103821 695.534668,259.625946 700.137085,259.512848 
	C735.921875,258.633240 771.715515,259.042633 808.259094,259.147156 
M883.500000,259.803955 
	C896.316650,259.659241 909.156799,260.159241 923.210754,259.223755 
	C891.417236,228.367249 859.899841,199.430771 827.815735,170.803711 
	C828.835510,179.081314 830.519531,186.968765 832.154236,194.866409 
	C836.293396,214.863297 840.482422,234.850433 844.474609,254.876709 
	C845.259827,258.815735 847.264160,259.934570 851.034119,259.870087 
	C861.520020,259.690735 872.011047,259.807434 883.500000,259.803955 
M109.481636,253.958908 
	C108.140839,255.437744 105.788200,256.069519 105.285316,258.723389 
	C115.894447,259.753357 126.194824,259.683350 136.493500,259.681366 
	C149.807419,259.678802 163.134476,259.362701 176.427734,259.890503 
	C180.756592,260.062408 182.065247,258.620728 182.762161,255.026031 
	C186.962112,233.362961 191.205902,211.708374 195.451263,190.054138 
	C196.733185,183.515396 198.066818,176.986832 199.376770,170.453598 
	C199.078979,170.263885 198.781174,170.074158 198.483383,169.884445 
	C168.987534,197.752762 139.491684,225.621078 109.481636,253.958908 
M575.396362,116.083717 
	C577.129150,116.657730 578.878113,117.187546 580.592346,117.812447 
	C602.898315,125.943710 625.245544,133.966446 647.454956,142.353729 
	C651.020752,143.700317 652.995361,142.774582 655.259888,140.460464 
	C662.710876,132.846237 670.258057,125.326057 677.708557,117.711319 
	C679.974365,115.395493 682.961731,113.686768 684.582031,109.828110 
	C642.649292,109.828110 601.182556,109.828110 559.715820,109.828110 
	C564.829712,111.477730 569.616333,113.975197 575.396362,116.083717 
M409.114532,131.511520 
	C427.993225,124.591499 446.871918,117.671486 465.750641,110.751472 
	C465.647247,110.466125 465.543884,110.180786 465.440521,109.895447 
	C424.648773,109.895447 383.857025,109.895447 341.764160,109.895447 
	C353.017822,121.775269 363.752167,132.361252 374.839691,142.598389 
	C375.991272,143.661636 377.155334,143.390213 378.519775,142.874359 
	C388.452118,139.119263 398.416870,135.450012 409.114532,131.511520 
M767.462341,120.947105 
	C771.843811,122.755325 776.225220,124.563545 781.065674,126.561195 
	C771.010010,112.158363 756.336060,105.990334 742.684875,110.067696 
	C750.699524,113.620003 758.714233,117.172310 767.462341,120.947105 
M269.007019,116.517166 
	C273.559906,114.486031 278.112762,112.454887 283.637909,109.990005 
	C262.916382,108.302368 256.609467,111.039490 249.318207,124.488144 
	C255.799316,121.815750 262.028381,119.247284 269.007019,116.517166 
z"/>
<path fill="#000000" opacity="1.000000" stroke="none" 
	d="
M465.859741,751.001709 
	C465.860260,746.169556 465.991577,741.831970 465.827728,737.505554 
	C465.642639,732.617493 468.220184,730.312317 472.701965,730.187805 
	C480.027496,729.984192 487.363586,730.067993 494.693634,730.158081 
	C498.475067,730.204590 500.425018,732.508789 500.926605,736.077332 
	C501.133698,737.550781 501.037048,739.070435 501.037292,740.569031 
	C501.045319,793.560364 501.046967,846.551758 501.054077,899.543091 
	C501.055023,906.632629 499.608734,908.188354 492.702301,908.239075 
	C486.370392,908.285583 480.037292,908.295044 473.705719,908.226318 
	C467.281219,908.156616 465.909027,906.676453 465.906494,900.126038 
	C465.898712,879.962830 465.764374,859.798340 465.974213,839.637390 
	C466.023621,834.890259 464.625458,833.146729 459.756287,833.261230 
	C440.103851,833.723450 420.437347,832.935669 400.783020,833.829529 
	C397.469910,833.980225 394.122101,833.700317 390.808228,833.412842 
	C387.135925,833.094299 385.922668,834.452637 385.963440,838.249756 
	C386.177917,858.244385 386.111084,878.242004 386.158020,898.238586 
	C386.179657,907.454834 384.922913,908.657166 375.833191,908.449402 
	C370.336731,908.323669 364.835480,908.408630 359.336395,908.391907 
	C352.050293,908.369690 350.901215,907.238159 350.898041,900.014465 
	C350.878174,854.521484 350.864349,809.028503 350.848114,763.535522 
	C350.845123,755.203491 350.833984,746.871460 350.838226,738.539429 
	C350.841400,732.271545 352.553284,730.325928 358.671875,730.163513 
	C365.166901,729.991150 371.669678,729.973938 378.166840,730.059021 
	C384.071075,730.136353 386.111237,732.345520 386.114197,738.427979 
	C386.123413,757.258362 386.204071,776.089844 386.004578,794.918213 
	C385.956879,799.418579 387.248505,800.972229 391.963470,800.926819 
	C414.457672,800.709656 436.955383,800.856812 459.451843,800.875671 
	C465.782349,800.880981 465.865204,800.783508 465.860840,794.495056 
	C465.850861,780.163757 465.859253,765.832520 465.859741,751.001709 
z"/>
<path fill="#000000" opacity="1.000000" stroke="none" 
	d="
M322.916382,887.502808 
	C317.387970,902.367493 309.335785,908.155334 293.798553,908.212769 
	C264.476685,908.321106 235.153839,908.325623 205.832031,908.211487 
	C189.941025,908.149658 181.363174,902.160950 175.955002,888.070801 
	C174.967178,885.497070 174.813751,882.892029 174.812912,880.223511 
	C174.800186,840.238342 174.732178,800.252991 174.808411,760.268005 
	C174.839676,743.884338 184.527985,732.982361 200.739456,730.808594 
	C204.359879,730.323120 208.040970,730.094360 211.694916,730.085938 
	C237.518600,730.026001 263.342560,730.091736 289.166229,730.026123 
	C294.909637,730.011536 300.485809,730.946777 305.828583,732.831177 
	C317.598511,736.982300 322.532135,746.289978 324.162628,757.963318 
	C325.228149,765.591797 325.094177,773.262146 324.918640,780.913635 
	C324.816833,785.351868 322.272156,787.991089 317.582855,787.995850 
	C310.252380,788.003296 302.919586,788.068726 295.592072,787.910950 
	C290.265198,787.796265 288.498932,785.742798 288.578827,780.469116 
	C288.641907,776.304993 288.621399,772.139465 288.681885,767.975281 
	C288.728699,764.753296 287.429138,763.000305 283.968689,763.005859 
	C260.644409,763.043152 237.319992,763.040222 213.995697,763.004150 
	C210.787781,762.999207 209.483353,764.669678 209.411209,767.621521 
	C209.346100,770.285767 209.338547,772.951782 209.337784,775.617065 
	C209.329086,806.438965 209.319672,837.260864 209.327744,868.082764 
	C209.329483,874.731750 209.361221,874.734131 216.021439,874.735901 
	C238.179535,874.742004 260.338867,874.622192 282.494720,874.848389 
	C287.333588,874.897705 289.138733,873.345886 288.769226,868.564636 
	C288.474854,864.755493 288.611938,860.902283 288.734894,857.074341 
	C288.891052,852.212585 291.030792,850.044373 295.821655,849.974548 
	C302.817383,849.872559 309.816681,849.855408 316.812256,849.956055 
	C321.950836,850.029968 324.612335,852.553040 324.447449,857.723633 
	C324.135040,867.520203 325.197510,877.394043 322.916382,887.502808 
z"/>
<path fill="#000000" opacity="1.000000" stroke="none" 
	d="
M835.000000,908.171509 
	C807.016418,908.322510 779.526794,907.568787 752.049683,908.718872 
	C747.197266,908.921997 744.985840,906.416504 744.986267,900.723572 
	C744.988403,868.567932 745.005859,836.412354 745.002625,804.256714 
	C745.000427,782.763977 744.960632,761.271179 744.962402,739.778442 
	C744.963013,731.842407 746.748352,730.072083 754.666077,730.042664 
	C759.997559,730.022827 765.329407,730.007202 770.660583,730.051880 
	C778.477234,730.117493 780.126831,731.765625 780.124878,739.394470 
	C780.113770,781.879944 780.099182,824.365479 780.087097,866.850952 
	C780.084839,874.818848 780.087463,874.847534 787.934082,874.845093 
	C812.925293,874.837280 837.916504,874.816895 862.907715,874.777954 
	C871.293335,874.764893 872.220947,875.631226 872.227112,883.795166 
	C872.231750,889.959717 872.327148,896.125793 872.221924,902.288391 
	C872.138489,907.175598 869.763855,909.360352 864.960327,908.871155 
	C855.152100,907.872192 845.319885,908.383240 835.000000,908.171509 
z"/>
<path fill="#000000" opacity="1.000000" stroke="none" 
	d="
M600.072449,868.000000 
	C600.026611,825.017212 599.976013,782.534363 599.935974,740.051575 
	C599.928162,731.732361 601.582214,730.074036 609.839355,730.055725 
	C615.503662,730.043152 621.171265,729.936340 626.831238,730.093140 
	C632.386902,730.247009 634.924500,732.541382 634.922180,738.069946 
	C634.911438,764.054871 634.693848,790.039795 634.566772,816.024780 
	C634.477966,834.181946 634.464417,852.339600 634.305298,870.496094 
	C634.268860,874.654541 636.777588,874.911194 639.886597,874.906799 
	C665.375732,874.871033 690.864929,874.894348 716.354065,874.862427 
	C725.292297,874.851257 726.856689,876.311401 726.974426,885.189514 
	C727.045166,890.520020 727.172852,895.852661 727.089355,901.181458 
	C727.007507,906.405212 723.978210,908.896667 718.750977,908.721375 
	C682.111816,907.492615 645.466492,907.926514 608.823547,908.497986 
	C601.503906,908.612183 600.011047,907.340210 600.036865,899.987732 
	C600.073669,889.491882 600.062256,878.995911 600.072449,868.000000 
z"/>
<path fill="#000000" opacity="1.000000" stroke="none" 
	d="
M567.485962,738.087219 
	C566.917725,792.119934 567.009216,845.740723 567.304749,899.361694 
	C567.348572,907.308960 566.396362,908.319824 558.502563,908.335205 
	C552.840637,908.346252 547.178650,908.369080 541.516907,908.340637 
	C533.833374,908.302063 532.821350,907.293335 532.823425,899.738953 
	C532.835449,856.108826 532.875000,812.478760 532.854431,768.848633 
	C532.849487,758.359192 532.717651,747.868530 532.512207,737.381042 
	C532.424072,732.882996 534.346130,730.353455 538.877258,730.261414 
	C546.201172,730.112305 553.530029,730.036682 560.854248,730.129700 
	C565.663818,730.190735 567.566406,733.149475 567.485962,738.087219 
z"/>
</svg>